<svg xmlns="http://www.w3.org/2000/svg" xmlns:svg="http://www.w3.org/2000/svg" id="svg3297" width="253.5" height="31.5" version="1.1" viewBox="0 0 67.072 8.334"><metadata id="metadata3294"/><g id="layer1" transform="translate(-252.97002,-178.77329)"><g id="g368" transform="matrix(0.26458333,0,0,0.26458333,252.97002,178.77329)"><g id="g366" transform="scale(1.5)"><path id="path356" d="m 8.5,8.5 v -4 a 4,4 90 0 1 4,-4 h 4 10 42.797852 4 a 4,4 90 0 1 4,4 v 4 h -4 v -3 h -4 v 10 h 4 v -3 h 4 v 4 a 4,4 90 0 1 -4,4 h -4 H 26.5 h -10 -4 a 4,4 90 0 1 -4,-4 v -4 -1 h -6 v 3 h -2 v -8 h 2 v 3 h 6 z" style="fill:#d98a43;fill-opacity:1;stroke:#b7651a;stroke-width:1;stroke-linecap:round;stroke-opacity:1"/><text id="text360" style="font-size:10px;font-family:sans-serif;text-anchor:end;fill:#282828"><tspan id="tspan358" x="67" y="13">dictionary</tspan></text></g></g><g id="g378" transform="matrix(0.26458333,0,0,0.26458333,280.75127,178.77329)"><g id="g376" transform="scale(1.5)"><path id="path370" d="m 8.5,0.5 h 90 v 20 h -90 v -8 -1 h -6 v 3 h -2 v -8 h 2 v 3 h 6 v -1 z" style="fill:#ff664b;fill-opacity:1;stroke:#ea4326;stroke-width:1;stroke-linecap:round;stroke-opacity:1"/><text id="text374" style="font-size:10px;font-family:sans-serif;text-anchor:start;fill:#282828"><tspan id="tspan372" x="13" y="14">My Dictionary</tspan></text></g></g></g></svg>